<?xml version="1.0" encoding="utf-8"?>
<svg version="1.1" id="Capa_1" xmlns="http://www.w3.org/2000/svg" xmlns:xlink="http://www.w3.org/1999/xlink"
     x="0px" y="0px" viewBox="0 0 58.365 58.365" xml:space="preserve" fill="white">
  <path d="M37.5,7.8c0.4-0.7,0.6-1.5,0.6-2.3C38.1,2.5,35.6,0,32.6,0c-2.3,0-4.3,1.5-5.1,3.6
    c-2.5,0.3-4.9,1.2-6.9,2.6c-0.4,0.3-0.5,1-0.2,1.4c0.3,0.4,1,0.5,1.4,0.2c2.1-1.5,4.7-2.3,7.4-2.3c0.4,0,0.7,0,1.1,0.1
    c0.5,0.1,1-0.2,1.1-0.7C31.7,3.1,32.6,2,33.8,2c1.9,0,3.5,1.6,3.5,3.5c0,0.5-0.1,1-0.3,1.4c-0.3,0.5-0.1,1.1,0.4,1.4
    c5.9,3.3,9.6,9.6,9.6,16.5v2.2c0,0.6,0.4,1,1,1h2.2c0.6,0,1-0.4,1-1v-2.2c0-7.1-3.6-13.6-9.4-17.4H37.5z"/>
  <path d="M10.4,27.1v-2.2c0-6.6,3.4-12.7,8.9-16.1c0.5-0.3,0.6-0.9,0.3-1.4c-0.3-0.5-0.9-0.6-1.4-0.3
    C12.2,10.9,8.4,17.7,8.4,24.9v2.2c0,0.6,0.4,1,1,1h2.2C10.8,28.1,10.4,27.7,10.4,27.1z"/>
  <path d="M45.3,26.2H13.1c-2.6,0-4.7,2.1-4.7,4.7v12.9c0,2.6,2.1,4.7,4.7,4.7h3.2v4.1c0,0.5,0.4,0.9,0.9,0.9h3.4
    c0.3,0,0.6-0.2,0.8-0.4l2.7-4.6h2.0l2.7,4.6c0.2,0.3,0.5,0.4,0.8,0.4h3.4c0.5,0,0.9-0.4,0.9-0.9v-4.1h8.4
    c2.6,0,4.7-2.1,4.7-4.7V30.9C50,28.3,47.9,26.2,45.3,26.2z M33.1,56.3h-2.0l-2.7-4.6c-0.2-0.3-0.5-0.4-0.8-0.4h-2.6
    c-0.3,0-0.6,0.2-0.8,0.4l-2.7,4.6h-2.0v-3.1h14.6V56.3z M48,43.8c0,1.5-1.2,2.7-2.7,2.7H13.1c-1.5,0-2.7-1.2-2.7-2.7
    V30.9c0-1.5,1.2-2.7,2.7-2.7h32.2c1.5,0,2.7,1.2,2.7,2.7V43.8z"/>
  <path d="M22.0,34.4c-2.0,0-3.6,1.6-3.6,3.6s1.6,3.6,3.6,3.6c2.0,0,3.6-1.6,3.6-3.6S24.0,34.4,22.0,34.4z M22.0,39.6
    c-0.9,0-1.6-0.7-1.6-1.6s0.7-1.6,1.6-1.6c0.9,0,1.6,0.7,1.6,1.6S22.9,39.6,22.0,39.6z"/>
  <path d="M36.4,34.4c-2.0,0-3.6,1.6-3.6,3.6s1.6,3.6,3.6,3.6c2.0,0,3.6-1.6,3.6-3.6S38.4,34.4,36.4,34.4z M36.4,39.6
    c-0.9,0-1.6-0.7-1.6-1.6s0.7-1.6,1.6-1.6c0.9,0,1.6,0.7,1.6,1.6S37.3,39.6,36.4,39.6z"/>
  <path d="M29.2,41.7c-2.3,0-4.4,0.9-6.0,2.6c-0.4,0.4-0.3,1.0,0.1,1.4c0.4,0.4,1.0,0.3,1.4-0.1c1.2-1.2,2.8-1.9,4.5-1.9
    c1.7,0,3.3,0.7,4.5,1.9c0.2,0.2,0.5,0.3,0.7,0.3c0.2,0,0.5-0.1,0.7-0.3c0.4-0.4,0.4-1.0,0.1-1.4
    C33.6,42.6,31.5,41.7,29.2,41.7z"/>
</svg>
